<?xml version="1.0" encoding="utf-8"?>
<!-- Generator: Adobe Illustrator 27.0.0, SVG Export Plug-In . SVG Version: 6.00 Build 0)  -->
<svg version="1.1" id="Capa_1" xmlns="http://www.w3.org/2000/svg" xmlns:xlink="http://www.w3.org/1999/xlink" x="0px" y="0px"
	 viewBox="0 0 512 408" style="enable-background:new 0 0 512 408;" xml:space="preserve">
<style type="text/css">
	.st0{fill:url(#SVGID_1_);}
	.st1{fill:#FFFFFF;}
</style>
<linearGradient id="SVGID_1_" gradientUnits="userSpaceOnUse" x1="51.5529" y1="366.1949" x2="498.9538" y2="11.0479" gradientTransform="matrix(1 0 0 -1 0 407.89)">
	<stop  offset="0" style="stop-color:#9013FE"/>
	<stop  offset="1" style="stop-color:#6610F2"/>
</linearGradient>
<path class="st0" d="M56.5,53.3C55.5,25.6,77.1,0,106.3,0h299.4c29.2,0,50.8,25.6,49.9,53.3c-0.9,26.6,0.3,61.2,9,89.3
	c8.7,28.2,23.4,46.1,47.5,48.4v26c-24.1,2.3-38.8,20.1-47.5,48.4c-8.7,28.1-9.9,62.7-9,89.3c1,27.7-20.6,53.3-49.9,53.3H106.3
	c-29.2,0-50.8-25.6-49.9-53.3c0.9-26.6-0.3-61.2-9-89.3C38.8,237.1,24.1,219.3,0,217v-26c24.1-2.3,38.8-20.1,47.5-48.4
	C56.2,114.5,57.4,80,56.5,53.3z"/>
<g>
	<path class="st1" d="M128.2,243l9.6-14.9c9.3,5.9,18.4,8.9,27.3,8.9c5.7,0,10.2-0.9,13.4-2.7c3.2-1.8,4.9-4.5,4.9-8.1
		c0-2.2-0.5-4-1.6-5.5c-1-1.4-2.9-2.8-5.5-4.2c-2.7-1.3-6.6-3.1-11.9-5.2l-3.5-1.3c-6.4-2.5-11.5-4.9-15.5-7.2
		c-3.9-2.3-7-5.2-9.3-8.9c-2.3-3.6-3.5-8.1-3.5-13.6c0-6.1,1.7-11.2,5.2-15.2c3.5-4.1,8-7,13.5-8.9c5.5-1.9,11.3-2.8,17.5-2.8
		c5.6,0,11.4,0.9,17.3,2.8c5.9,1.9,11.6,4.6,17,8.2l-9.7,14.7c-4.8-2.9-9-5-12.7-6.3c-3.7-1.3-7.7-1.9-11.9-1.9
		c-4.8,0-8.4,0.8-10.8,2.4c-2.4,1.6-3.7,3.8-3.7,6.5c0,1.7,0.5,3.2,1.5,4.6c1,1.4,2.8,2.7,5.4,4.1c2.6,1.3,6.3,2.9,11.2,4.7l3.3,1.2
		c6.4,2.4,11.5,4.6,15.4,6.8c3.9,2.1,7.2,5.1,9.9,9c2.7,3.9,4,9,4,15.2c0,6.5-1.7,12-5.1,16.4c-3.4,4.5-8,7.8-13.9,10
		c-5.8,2.2-12.5,3.3-19.9,3.3C151.5,254.7,138.7,250.8,128.2,243z"/>
	<path class="st1" d="M271.3,155.4l35,96v1.2h-22.7l-7.8-23.2h-36l-7.7,23.2h-22.3v-1.2l35-96H271.3z M245.5,212.3h24.6l-12.5-37.1
		L245.5,212.3z"/>
	<path class="st1" d="M383.8,172.6h-44.2V197h38.2l-2.4,17.1h-35.8v38.5h-20.7v-97.2h65V172.6z"/>
</g>
</svg>
